<svg xmlns="http://www.w3.org/2000/svg" xmlns:xlink="http://www.w3.org/1999/xlink" width="500" zoomAndPan="magnify" viewBox="0 0 375 374.999991" height="500" preserveAspectRatio="xMidYMid meet" version="1.0"><defs><g/><clipPath id="ce7c0567a5"><path d="M 2.152344 0 L 375 0 L 375 375 L 2.152344 375 Z M 2.152344 0 " clip-rule="nonzero"/></clipPath><clipPath id="3c60c2c715"><path d="M 189.636719 0 C 86.085938 0 2.152344 83.9375 2.152344 187.484375 C 2.152344 291.03125 86.085938 374.96875 189.636719 374.96875 L 377.117188 374.96875 L 377.117188 187.484375 C 377.152344 83.9375 293.183594 0 189.636719 0 Z M 189.636719 0 " clip-rule="nonzero"/></clipPath></defs><g clip-path="url(#ce7c0567a5)"><g clip-path="url(#3c60c2c715)"><path fill="#8c52ff" d="M 2.152344 0 L 377.183594 0 L 377.183594 375.03125 L 2.152344 375.03125 Z M 2.152344 0 " fill-opacity="1" fill-rule="nonzero"/></g></g><g fill="#ffffff" fill-opacity="1"><g transform="translate(104.643694, 283.821911)"><g><path d="M 54.65625 -72.9375 L 54.65625 0 L 13.21875 0 L 13.21875 -181.8125 L 54.65625 -181.8125 L 54.65625 -109.3125 L 113.265625 -109.3125 L 113.265625 -181.8125 L 154.703125 -181.8125 L 154.703125 0 L 113.265625 0 L 113.265625 -72.9375 Z M 54.65625 -72.9375 "/></g></g></g></svg>